<?xml version="1.0" encoding="utf-8"?>
<!-- Generator: Adobe Illustrator 27.5.0, SVG Export Plug-In . SVG Version: 6.00 Build 0)  -->
<svg version="1.1" id="Layer_1" xmlns="http://www.w3.org/2000/svg" xmlns:xlink="http://www.w3.org/1999/xlink" x="0px" y="0px"
	 viewBox="0 0 181 170" style="enable-background:new 0 0 181 170;" xml:space="preserve">
<style type="text/css">
	.st0{fill:#E50D0E;}
</style>
<g transform="translate(0.000000,170.000000) scale(0.100000,-0.100000)">
	<path d="M680,1606l-175-83l-3-182c-1-101,1-181,6-179c4,1,87,57,184,123l177,120l1,143c0,78-3,142-7,142
		C858,1689,776,1652,680,1606z"/>
	<path class="st0" d="M940,850c0-462,2-840,4-840c9,0,257,118,270,129c12,10,15,53,16,244c0,127,2,232,4,234c3,3,261,43,277,43
		c5,0,10-85,11-190l3-190l130,62c72,33,136,65,143,71c9,7,12,107,12,438v428l-136,65c-75,36-141,66-145,66c-5,0-9-83-9-185v-185h-27
		c-16,1-80,9-143,18l-115,18l-5,239c-3,132-7,241-8,243c-3,3-274,132-278,132C942,1690,940,1312,940,850z"/>
	<path d="M300,1426c-36-17-118-56-182-86L0,1286V849V412l32-13c18-7,101-45,183-85l150-71l3,303c1,167,1,441,0,608l-3,303L300,1426z
		"/>
	<path d="M500,595V179l113-53c61-29,141-67,176-85c36-17,68-31,73-31c4,0,7,189,6,420l-3,421l-170,79c-93,44-176,80-182,80
		C503,1010,500,920,500,595z"/>
</g>
</svg>
