<svg xmlns="http://www.w3.org/2000/svg" viewBox="0 0 567.74 225.75"><defs><style>.cls-1{fill:#0b0c0c;}.cls-2{fill:#de221e;}</style></defs><g id="Warstwa_2" data-name="Warstwa 2"><g id="Warstwa_1-2" data-name="Warstwa 1"><path class="cls-1" d="M0,116.87c12.29.77,23.52,1.58,36,2.16v23.2l35.5,7.1v-28h35.75V225.52L71.63,207V177.94L36.28,165.32v23.16L0,170Z"/><path class="cls-2" d="M123.6,0c9.68,1.73,18.54,3.54,28.44,4.84,3.92,24.22-11.24,67,26.15,68.36v31.2c-32.67,4.52-62.45-22.44-61-54.8-.19-16.69.58-33.09-.44-49.62Z"/><path class="cls-1" d="M0,55.79C16,50.58,29.49,41.1,45.43,33.55v74.11c-15.15,1-30.47.21-45.43,2.53Z"/><path class="cls-2" d="M116.73,225.75c.06-7.15.46-45.76.39-52.12l35-2.46v49.67c-8.06,1.32-16.71,1.6-24.38,4.91Z"/><path class="cls-2" d="M270.43,47.59l-28.88-2.86v-29L323.83,26.1V51.87l-17.88-1v52.59C277.74,95,268,74.84,270.43,47.59Z"/><path class="cls-2" d="M299.73,145.77,276.11,147v54.3c-26.65-.37-39.65-28.4-35.46-52.24,1.78-12.87-7.62-20.54-16.88-27.39,4.17-2.62,62.8-3.92,76-1.86Z"/><path class="cls-2" d="M348.45,120.65c16.43-1.53,33.68-3.93,49.72,1.42,33,12.53,25.38,36.29-3.3,48.32l21.29,16.19c-17.58,5.6-35.51,5-53.5,8.52-5.7.84-9-2-13-6.19,10.55-9.7,18.06-21,16.67-35.29,7.14-4.19,17.64,1.45,21.88-8.75-6.3-7-14.26-2.34-20.53-3.9Z"/><path class="cls-2" d="M464.12,72.61h9.13c.15-2.12.3-4.14.47-6.45l-6.92-1.32L447.55,43c12.15.67,24.72,0,34.43,8.64,23.15,19.17,47.65,36.81,71.36,55.31-.16.55-.31,1.11-.47,1.67-14.48-1.3-50.92,3.51-60.58-4.26C471.35,85.33,459.43,97.84,441,90,451.51,87.39,458.66,81.07,464.12,72.61Z"/><path class="cls-2" d="M378.26,99.8c11.48-8.09,18.38-17.78,17-31.22,7.17-3.43,15.66,2.72,22.3-4.34-4.47-9.25-14.17-5.11-21.38-8.2V36.12c36-2.73,82.77,36.55,27.66,52.1l22.7,18.69c-18.37,1.87-37.06-.27-55.53.4C385.24,107.35,382.62,103.56,378.26,99.8Z"/><path class="cls-2" d="M165.3,218.88V192.8c12.46,2.53,17.51,1,20.51-6.1-2.64-7.13-14.64-3.58-20.35-4.4V156.45c19,1.24,40.24-.49,55.88,12.37,9.31,7.72,10.95,18.14,2.65,26.82C209.86,210.6,184.62,221.12,165.3,218.88Z"/><path class="cls-2" d="M319.86,105.89V79.19c8.43,3,14.61-.46,20.59-4.92A11.52,11.52,0,0,0,345.6,64.1c-.19-11.22-.07-22.45-.07-34.74l34.61,4.16c1.54,11.22.13,22.69.74,34C381.11,97.68,345.21,108.38,319.86,105.89Z"/><path class="cls-2" d="M191.5,101.34V9.71l35,4.37C226.2,49.62,234,90.69,191.5,101.34Z"/><path class="cls-2" d="M477.08,118.53c5.55-1.08,10.48-1.23,15.34,1.73,24.85,15.88,51.24,29.66,75.32,46.65-17.21,4.55-35.55,5.21-53.18,8a12.3,12.3,0,0,1-7-1.78c-9.21-5.32-18-11.66-30.39-7.23v-20l10.09-1.75v-6.34H477.08Z"/><path class="cls-2" d="M290.51,200.94V175.67c14.91-4.36,29.33-6.51,23.9-25.43V121.35C383.14,138,343.89,203.05,290.51,200.94Z"/><path class="cls-1" d="M61.79,107V65.24l45.6-2.17v42.14Z"/><path class="cls-2" d="M165.21,148.21V121.72c23.77-3,58.37-1.24,62.64,28.78h-41.4C180.6,144.52,180.37,144.48,165.21,148.21Z"/><path class="cls-1" d="M107.29,1.38V32l-45,25.54V24.79Z"/><path class="cls-2" d="M462.6,146.2v35.43l-21.71,3c-20.29-11.18-24.68-14-7.85-32.92C440.05,144.29,452.61,148,462.6,146.2Z"/><path class="cls-2" d="M260.86,77.21v28H213.69c10.1-8.21,18.66-16,21.45-28Z"/><path class="cls-2" d="M152.39,124.9V156l-32.26,1.7C118.59,142.35,139.35,124.79,152.39,124.9Z"/><path class="cls-2" d="M462.51,118.56v20.12L435.58,140c-1-8.4-10.57-12-12.15-21.39Z"/></g></g></svg>