<?xml version="1.0" encoding="UTF-8"?>
<svg id="Layer_1" data-name="Layer 1" xmlns="http://www.w3.org/2000/svg" viewBox="0 0 181 170">
  <path d="m68,9.4l-17.5,8.3-.3,18.2c-.1,10.1.1,18.1.6,17.9.4-.1,8.7-5.7,18.4-12.3l17.7-12,.1-14.3c0-7.8-.3-14.2-.7-14.2-.5.1-8.7,3.8-18.3,8.4Z" fill="#fff"/>
  <path d="m94,85c0,46.2.2,84,.4,84,.9,0,25.7-11.8,27-12.9,1.2-1,1.5-5.3,1.6-24.4,0-12.7.2-23.2.4-23.4.3-.3,26.1-4.3,27.7-4.3.5,0,1,8.5,1.1,19l.3,19,13-6.2c7.2-3.3,13.6-6.5,14.3-7.1.9-.7,1.2-10.7,1.2-43.8v-42.8l-13.6-6.5c-7.5-3.6-14.1-6.6-14.5-6.6-.5,0-.9,8.3-.9,18.5v18.5h-2.7c-1.6-.1-8-.9-14.3-1.8l-11.5-1.8-.5-23.9c-.3-13.2-.7-24.1-.8-24.3-.3-.3-27.4-13.2-27.8-13.2-.2,0-.4,37.8-.4,84Z" fill="#e50d0e"/>
  <path d="m30,27.4c-3.6,1.7-11.8,5.6-18.2,8.6L0,41.4v87.4l3.2,1.3c1.8.7,10.1,4.5,18.3,8.5l15,7.1.3-30.3c.1-16.7.1-44.1,0-60.8l-.3-30.3-6.5,3.1Z" fill="#fff"/>
  <path d="m50,110.5v41.6l11.3,5.3c6.1,2.9,14.1,6.7,17.6,8.5,3.6,1.7,6.8,3.1,7.3,3.1.4,0,.7-18.9.6-42l-.3-42.1-17-7.9c-9.3-4.4-17.6-8-18.2-8-1,0-1.3,9-1.3,41.5Z" fill="#fff"/>
</svg>